<mxfile host="app.diagrams.net" modified="2024-04-16T23:58:28.502Z" agent="Mozilla/5.0 (Macintosh; Intel Mac OS X 10_15_7) AppleWebKit/537.36 (KHTML, like Gecko) Chrome/123.0.0.0 Safari/537.36" etag="lRJnb0FnE5TQL8gX4ZNb" version="24.2.5" type="github">
  <diagram name="Página-1" id="_2iSpzAk0nADA7rZEYPe">
    <mxGraphModel dx="622" dy="1563" grid="1" gridSize="10" guides="1" tooltips="1" connect="1" arrows="1" fold="1" page="1" pageScale="1" pageWidth="827" pageHeight="1169" math="0" shadow="0">
      <root>
        <mxCell id="0" />
        <mxCell id="1" parent="0" />
        <mxCell id="qKXQgxUZNCxVZ5N2Fq7q-11" style="edgeStyle=orthogonalEdgeStyle;rounded=0;orthogonalLoop=1;jettySize=auto;html=1;entryX=0;entryY=0.5;entryDx=0;entryDy=0;endArrow=none;endFill=0;" edge="1" parent="1" source="qKXQgxUZNCxVZ5N2Fq7q-1" target="qKXQgxUZNCxVZ5N2Fq7q-10">
          <mxGeometry relative="1" as="geometry" />
        </mxCell>
        <mxCell id="qKXQgxUZNCxVZ5N2Fq7q-1" value="Carretera" style="whiteSpace=wrap;html=1;align=center;fillColor=#dae8fc;strokeColor=#6c8ebf;" vertex="1" parent="1">
          <mxGeometry x="160" y="200" width="100" height="40" as="geometry" />
        </mxCell>
        <mxCell id="qKXQgxUZNCxVZ5N2Fq7q-2" value="Tramo" style="whiteSpace=wrap;html=1;align=center;fillColor=#dae8fc;strokeColor=#6c8ebf;" vertex="1" parent="1">
          <mxGeometry x="540" y="200" width="100" height="40" as="geometry" />
        </mxCell>
        <mxCell id="qKXQgxUZNCxVZ5N2Fq7q-3" value="Comuna" style="whiteSpace=wrap;html=1;align=center;fillColor=#dae8fc;strokeColor=#6c8ebf;" vertex="1" parent="1">
          <mxGeometry x="540" y="450" width="100" height="40" as="geometry" />
        </mxCell>
        <mxCell id="qKXQgxUZNCxVZ5N2Fq7q-4" value="Categorias" style="ellipse;whiteSpace=wrap;html=1;align=center;fillColor=#d5e8d4;strokeColor=#82b366;" vertex="1" parent="1">
          <mxGeometry x="230" y="80" width="100" height="40" as="geometry" />
        </mxCell>
        <mxCell id="qKXQgxUZNCxVZ5N2Fq7q-6" value="IdCarretera" style="ellipse;whiteSpace=wrap;html=1;align=center;fillColor=#d5e8d4;strokeColor=#82b366;fontStyle=4" vertex="1" parent="1">
          <mxGeometry x="90" y="80" width="100" height="40" as="geometry" />
        </mxCell>
        <mxCell id="qKXQgxUZNCxVZ5N2Fq7q-9" style="edgeStyle=orthogonalEdgeStyle;rounded=0;orthogonalLoop=1;jettySize=auto;html=1;endArrow=none;endFill=0;" edge="1" parent="1" source="qKXQgxUZNCxVZ5N2Fq7q-8" target="qKXQgxUZNCxVZ5N2Fq7q-4">
          <mxGeometry relative="1" as="geometry" />
        </mxCell>
        <mxCell id="qKXQgxUZNCxVZ5N2Fq7q-8" value="Locales,&lt;div&gt;Comerciales,&lt;/div&gt;&lt;div&gt;Nacionales,&lt;/div&gt;&lt;div&gt;Autovías&lt;/div&gt;" style="shape=hexagon;perimeter=hexagonPerimeter2;whiteSpace=wrap;html=1;fixedSize=1;fillColor=#e1d5e7;strokeColor=#9673a6;" vertex="1" parent="1">
          <mxGeometry x="227.5" y="-20" width="105" height="70" as="geometry" />
        </mxCell>
        <mxCell id="qKXQgxUZNCxVZ5N2Fq7q-12" style="edgeStyle=orthogonalEdgeStyle;rounded=0;orthogonalLoop=1;jettySize=auto;html=1;entryX=0;entryY=0.5;entryDx=0;entryDy=0;endArrow=none;endFill=0;" edge="1" parent="1" source="qKXQgxUZNCxVZ5N2Fq7q-10" target="qKXQgxUZNCxVZ5N2Fq7q-2">
          <mxGeometry relative="1" as="geometry" />
        </mxCell>
        <mxCell id="qKXQgxUZNCxVZ5N2Fq7q-10" value="Divide" style="shape=rhombus;perimeter=rhombusPerimeter;whiteSpace=wrap;html=1;align=center;fillColor=#ffe6cc;strokeColor=#d79b00;" vertex="1" parent="1">
          <mxGeometry x="363" y="195" width="100" height="50" as="geometry" />
        </mxCell>
        <mxCell id="qKXQgxUZNCxVZ5N2Fq7q-13" value="1 : M" style="text;strokeColor=none;fillColor=none;spacingLeft=4;spacingRight=4;overflow=hidden;rotatable=0;points=[[0,0.5],[1,0.5]];portConstraint=eastwest;fontSize=12;whiteSpace=wrap;html=1;fontStyle=1" vertex="1" parent="1">
          <mxGeometry x="393" y="165" width="40" height="30" as="geometry" />
        </mxCell>
        <mxCell id="qKXQgxUZNCxVZ5N2Fq7q-14" value="0 : M" style="text;strokeColor=none;fillColor=none;spacingLeft=4;spacingRight=4;overflow=hidden;rotatable=0;points=[[0,0.5],[1,0.5]];portConstraint=eastwest;fontSize=12;whiteSpace=wrap;html=1;fontStyle=1" vertex="1" parent="1">
          <mxGeometry x="500" y="190" width="40" height="30" as="geometry" />
        </mxCell>
        <mxCell id="qKXQgxUZNCxVZ5N2Fq7q-15" value="1 : 1" style="text;strokeColor=none;fillColor=none;spacingLeft=4;spacingRight=4;overflow=hidden;rotatable=0;points=[[0,0.5],[1,0.5]];portConstraint=eastwest;fontSize=12;whiteSpace=wrap;html=1;fontStyle=1" vertex="1" parent="1">
          <mxGeometry x="260" y="190" width="40" height="30" as="geometry" />
        </mxCell>
        <mxCell id="qKXQgxUZNCxVZ5N2Fq7q-20" style="edgeStyle=orthogonalEdgeStyle;rounded=0;orthogonalLoop=1;jettySize=auto;html=1;entryX=0.5;entryY=0;entryDx=0;entryDy=0;endArrow=none;endFill=0;" edge="1" parent="1" source="qKXQgxUZNCxVZ5N2Fq7q-18" target="qKXQgxUZNCxVZ5N2Fq7q-3">
          <mxGeometry relative="1" as="geometry">
            <Array as="points">
              <mxPoint x="590" y="410" />
              <mxPoint x="590" y="410" />
            </Array>
          </mxGeometry>
        </mxCell>
        <mxCell id="qKXQgxUZNCxVZ5N2Fq7q-18" value="Pasan" style="shape=rhombus;perimeter=rhombusPerimeter;whiteSpace=wrap;html=1;align=center;fillColor=#ffe6cc;strokeColor=#d79b00;" vertex="1" parent="1">
          <mxGeometry x="540" y="320" width="100" height="50" as="geometry" />
        </mxCell>
        <mxCell id="qKXQgxUZNCxVZ5N2Fq7q-19" style="edgeStyle=orthogonalEdgeStyle;rounded=0;orthogonalLoop=1;jettySize=auto;html=1;endArrow=none;endFill=0;" edge="1" parent="1" source="qKXQgxUZNCxVZ5N2Fq7q-2" target="qKXQgxUZNCxVZ5N2Fq7q-18">
          <mxGeometry relative="1" as="geometry" />
        </mxCell>
        <mxCell id="qKXQgxUZNCxVZ5N2Fq7q-21" value="1 : M" style="text;strokeColor=none;fillColor=none;spacingLeft=4;spacingRight=4;overflow=hidden;rotatable=0;points=[[0,0.5],[1,0.5]];portConstraint=eastwest;fontSize=12;whiteSpace=wrap;html=1;fontStyle=1" vertex="1" parent="1">
          <mxGeometry x="640" y="330" width="40" height="30" as="geometry" />
        </mxCell>
        <mxCell id="qKXQgxUZNCxVZ5N2Fq7q-22" value="DstInicial" style="ellipse;whiteSpace=wrap;html=1;align=center;fillColor=#d5e8d4;strokeColor=#82b366;" vertex="1" parent="1">
          <mxGeometry x="680" y="160" width="100" height="40" as="geometry" />
        </mxCell>
        <mxCell id="qKXQgxUZNCxVZ5N2Fq7q-23" value="IdTramo" style="ellipse;whiteSpace=wrap;html=1;align=center;fontStyle=4;fillColor=#d5e8d4;strokeColor=#82b366;" vertex="1" parent="1">
          <mxGeometry x="550" y="120" width="100" height="40" as="geometry" />
        </mxCell>
        <mxCell id="qKXQgxUZNCxVZ5N2Fq7q-24" value="DstFinal" style="ellipse;whiteSpace=wrap;html=1;align=center;fillColor=#d5e8d4;strokeColor=#82b366;" vertex="1" parent="1">
          <mxGeometry x="680" y="240" width="100" height="40" as="geometry" />
        </mxCell>
        <mxCell id="qKXQgxUZNCxVZ5N2Fq7q-25" value="" style="endArrow=none;html=1;rounded=0;exitX=0.5;exitY=0;exitDx=0;exitDy=0;" edge="1" parent="1" source="qKXQgxUZNCxVZ5N2Fq7q-2" target="qKXQgxUZNCxVZ5N2Fq7q-23">
          <mxGeometry relative="1" as="geometry">
            <mxPoint x="490" y="80" as="sourcePoint" />
            <mxPoint x="650" y="80" as="targetPoint" />
          </mxGeometry>
        </mxCell>
        <mxCell id="qKXQgxUZNCxVZ5N2Fq7q-26" value="" style="endArrow=none;html=1;rounded=0;exitX=1;exitY=0;exitDx=0;exitDy=0;" edge="1" parent="1" source="qKXQgxUZNCxVZ5N2Fq7q-2" target="qKXQgxUZNCxVZ5N2Fq7q-22">
          <mxGeometry relative="1" as="geometry">
            <mxPoint x="660" y="170" as="sourcePoint" />
            <mxPoint x="820" y="170" as="targetPoint" />
          </mxGeometry>
        </mxCell>
        <mxCell id="qKXQgxUZNCxVZ5N2Fq7q-27" value="" style="endArrow=none;html=1;rounded=0;exitX=1;exitY=1;exitDx=0;exitDy=0;" edge="1" parent="1" source="qKXQgxUZNCxVZ5N2Fq7q-2" target="qKXQgxUZNCxVZ5N2Fq7q-24">
          <mxGeometry relative="1" as="geometry">
            <mxPoint x="710" y="150" as="sourcePoint" />
            <mxPoint x="870" y="150" as="targetPoint" />
          </mxGeometry>
        </mxCell>
        <mxCell id="qKXQgxUZNCxVZ5N2Fq7q-29" value="0 : M" style="text;strokeColor=none;fillColor=none;spacingLeft=4;spacingRight=4;overflow=hidden;rotatable=0;points=[[0,0.5],[1,0.5]];portConstraint=eastwest;fontSize=12;whiteSpace=wrap;html=1;fontStyle=1" vertex="1" parent="1">
          <mxGeometry x="590" y="420" width="40" height="30" as="geometry" />
        </mxCell>
        <mxCell id="qKXQgxUZNCxVZ5N2Fq7q-30" value="1 : 1" style="text;strokeColor=none;fillColor=none;spacingLeft=4;spacingRight=4;overflow=hidden;rotatable=0;points=[[0,0.5],[1,0.5]];portConstraint=eastwest;fontSize=12;whiteSpace=wrap;html=1;fontStyle=1" vertex="1" parent="1">
          <mxGeometry x="590" y="240" width="40" height="30" as="geometry" />
        </mxCell>
        <mxCell id="qKXQgxUZNCxVZ5N2Fq7q-32" style="edgeStyle=orthogonalEdgeStyle;rounded=0;orthogonalLoop=1;jettySize=auto;html=1;entryX=0;entryY=0.5;entryDx=0;entryDy=0;exitX=0.5;exitY=0;exitDx=0;exitDy=0;endArrow=none;endFill=0;" edge="1" parent="1" source="qKXQgxUZNCxVZ5N2Fq7q-31" target="qKXQgxUZNCxVZ5N2Fq7q-1">
          <mxGeometry relative="1" as="geometry" />
        </mxCell>
        <mxCell id="qKXQgxUZNCxVZ5N2Fq7q-33" style="edgeStyle=orthogonalEdgeStyle;rounded=0;orthogonalLoop=1;jettySize=auto;html=1;entryX=0.5;entryY=1;entryDx=0;entryDy=0;exitX=0.5;exitY=1;exitDx=0;exitDy=0;endArrow=none;endFill=0;" edge="1" parent="1" source="qKXQgxUZNCxVZ5N2Fq7q-31" target="qKXQgxUZNCxVZ5N2Fq7q-1">
          <mxGeometry relative="1" as="geometry" />
        </mxCell>
        <mxCell id="qKXQgxUZNCxVZ5N2Fq7q-31" value="Confluye" style="shape=rhombus;perimeter=rhombusPerimeter;whiteSpace=wrap;html=1;align=center;fillColor=#ffe6cc;strokeColor=#d79b00;" vertex="1" parent="1">
          <mxGeometry x="20" y="250" width="100" height="50" as="geometry" />
        </mxCell>
        <mxCell id="qKXQgxUZNCxVZ5N2Fq7q-34" value="1 : 1" style="text;strokeColor=none;fillColor=none;spacingLeft=4;spacingRight=4;overflow=hidden;rotatable=0;points=[[0,0.5],[1,0.5]];portConstraint=eastwest;fontSize=12;whiteSpace=wrap;html=1;fontStyle=1" vertex="1" parent="1">
          <mxGeometry x="120" y="260" width="40" height="30" as="geometry" />
        </mxCell>
        <mxCell id="qKXQgxUZNCxVZ5N2Fq7q-35" value="1 : 1" style="text;strokeColor=none;fillColor=none;spacingLeft=4;spacingRight=4;overflow=hidden;rotatable=0;points=[[0,0.5],[1,0.5]];portConstraint=eastwest;fontSize=12;whiteSpace=wrap;html=1;fontStyle=1" vertex="1" parent="1">
          <mxGeometry x="210" y="240" width="40" height="30" as="geometry" />
        </mxCell>
        <mxCell id="qKXQgxUZNCxVZ5N2Fq7q-36" value="0 : 1" style="text;strokeColor=none;fillColor=none;spacingLeft=4;spacingRight=4;overflow=hidden;rotatable=0;points=[[0,0.5],[1,0.5]];portConstraint=eastwest;fontSize=12;whiteSpace=wrap;html=1;fontStyle=1" vertex="1" parent="1">
          <mxGeometry x="120" y="190" width="40" height="30" as="geometry" />
        </mxCell>
        <mxCell id="qKXQgxUZNCxVZ5N2Fq7q-37" value="" style="endArrow=none;html=1;rounded=0;" edge="1" parent="1" source="qKXQgxUZNCxVZ5N2Fq7q-6" target="qKXQgxUZNCxVZ5N2Fq7q-1">
          <mxGeometry relative="1" as="geometry">
            <mxPoint x="160" y="140" as="sourcePoint" />
            <mxPoint x="320" y="140" as="targetPoint" />
          </mxGeometry>
        </mxCell>
        <mxCell id="qKXQgxUZNCxVZ5N2Fq7q-39" value="" style="endArrow=none;html=1;rounded=0;" edge="1" parent="1" source="qKXQgxUZNCxVZ5N2Fq7q-1" target="qKXQgxUZNCxVZ5N2Fq7q-4">
          <mxGeometry relative="1" as="geometry">
            <mxPoint x="80" y="170" as="sourcePoint" />
            <mxPoint x="240" y="170" as="targetPoint" />
          </mxGeometry>
        </mxCell>
      </root>
    </mxGraphModel>
  </diagram>
</mxfile>
